<mxfile host="app.diagrams.net" agent="Mozilla/5.0 (Windows NT 10.0; Win64; x64) AppleWebKit/537.36 (KHTML, like Gecko) Chrome/131.0.0.0 Safari/537.36" version="25.0.1">
  <diagram name="Страница — 1" id="9fDywPRnLzpljugIavI6">
    <mxGraphModel dx="875" dy="435" grid="1" gridSize="10" guides="1" tooltips="1" connect="1" arrows="1" fold="1" page="1" pageScale="1" pageWidth="827" pageHeight="1169" math="0" shadow="0">
      <root>
        <mxCell id="0" />
        <mxCell id="1" parent="0" />
        <mxCell id="OEuJvRBujgitr7y0V4c9-5" style="edgeStyle=orthogonalEdgeStyle;rounded=0;orthogonalLoop=1;jettySize=auto;html=1;exitX=0.5;exitY=1;exitDx=0;exitDy=0;entryX=0.5;entryY=0;entryDx=0;entryDy=0;" edge="1" parent="1" source="OEuJvRBujgitr7y0V4c9-1" target="OEuJvRBujgitr7y0V4c9-2">
          <mxGeometry relative="1" as="geometry" />
        </mxCell>
        <mxCell id="OEuJvRBujgitr7y0V4c9-1" value="&lt;font style=&quot;font-size: 14px;&quot;&gt;Implication(double a, double b)&lt;/font&gt;" style="rounded=1;whiteSpace=wrap;html=1;arcSize=50;" vertex="1" parent="1">
          <mxGeometry x="250" y="50" width="220" height="50" as="geometry" />
        </mxCell>
        <mxCell id="OEuJvRBujgitr7y0V4c9-6" style="edgeStyle=orthogonalEdgeStyle;rounded=0;orthogonalLoop=1;jettySize=auto;html=1;exitX=0.5;exitY=1;exitDx=0;exitDy=0;entryX=0.5;entryY=0;entryDx=0;entryDy=0;" edge="1" parent="1" source="OEuJvRBujgitr7y0V4c9-2" target="OEuJvRBujgitr7y0V4c9-3">
          <mxGeometry relative="1" as="geometry" />
        </mxCell>
        <mxCell id="OEuJvRBujgitr7y0V4c9-9" value="Нет" style="edgeLabel;html=1;align=center;verticalAlign=middle;resizable=0;points=[];fontSize=14;" vertex="1" connectable="0" parent="OEuJvRBujgitr7y0V4c9-6">
          <mxGeometry x="-0.46" y="2" relative="1" as="geometry">
            <mxPoint x="-22" as="offset" />
          </mxGeometry>
        </mxCell>
        <mxCell id="OEuJvRBujgitr7y0V4c9-7" style="edgeStyle=orthogonalEdgeStyle;rounded=0;orthogonalLoop=1;jettySize=auto;html=1;exitX=1;exitY=0.5;exitDx=0;exitDy=0;entryX=0;entryY=0.5;entryDx=0;entryDy=0;strokeWidth=1;fontSize=14;" edge="1" parent="1" source="OEuJvRBujgitr7y0V4c9-2" target="OEuJvRBujgitr7y0V4c9-4">
          <mxGeometry relative="1" as="geometry" />
        </mxCell>
        <mxCell id="OEuJvRBujgitr7y0V4c9-8" value="Да" style="edgeLabel;html=1;align=center;verticalAlign=middle;resizable=0;points=[];fontSize=14;" vertex="1" connectable="0" parent="OEuJvRBujgitr7y0V4c9-7">
          <mxGeometry x="-0.28" y="-4" relative="1" as="geometry">
            <mxPoint x="5" y="-24" as="offset" />
          </mxGeometry>
        </mxCell>
        <mxCell id="OEuJvRBujgitr7y0V4c9-2" value="&lt;font style=&quot;font-size: 14px;&quot;&gt;a &amp;lt;= b&lt;/font&gt;" style="rhombus;whiteSpace=wrap;html=1;" vertex="1" parent="1">
          <mxGeometry x="265" y="140" width="190" height="80" as="geometry" />
        </mxCell>
        <mxCell id="OEuJvRBujgitr7y0V4c9-3" value="&lt;font style=&quot;font-size: 14px;&quot;&gt;return 1 - a + b&lt;/font&gt;" style="rounded=1;whiteSpace=wrap;html=1;arcSize=50;" vertex="1" parent="1">
          <mxGeometry x="300" y="260" width="120" height="60" as="geometry" />
        </mxCell>
        <mxCell id="OEuJvRBujgitr7y0V4c9-4" value="&lt;font style=&quot;font-size: 14px;&quot;&gt;return 1&amp;nbsp;&lt;/font&gt;" style="rounded=1;whiteSpace=wrap;html=1;arcSize=50;" vertex="1" parent="1">
          <mxGeometry x="510" y="150" width="120" height="60" as="geometry" />
        </mxCell>
        <mxCell id="OEuJvRBujgitr7y0V4c9-10" value="&lt;font style=&quot;font-size: 14px;&quot;&gt;Метод принимает на вход степень&amp;nbsp;&lt;/font&gt;&lt;div&gt;&lt;font style=&quot;font-size: 14px;&quot;&gt;принадлежности элемента первого множества (предшествующего условия)&amp;nbsp;&lt;/font&gt;&lt;/div&gt;&lt;div&gt;&lt;font style=&quot;font-size: 14px;&quot;&gt;и&amp;nbsp;степень принадлежности элемента второго множества (следствия)&lt;/font&gt;&lt;/div&gt;" style="strokeWidth=2;html=1;shape=mxgraph.flowchart.annotation_2;align=left;labelPosition=right;pointerEvents=1;" vertex="1" parent="1">
          <mxGeometry x="545" y="25" width="50" height="100" as="geometry" />
        </mxCell>
        <mxCell id="OEuJvRBujgitr7y0V4c9-13" value="" style="endArrow=none;dashed=1;html=1;dashPattern=1 3;strokeWidth=2;rounded=0;entryX=0;entryY=0.5;entryDx=0;entryDy=0;entryPerimeter=0;exitX=1;exitY=0.5;exitDx=0;exitDy=0;" edge="1" parent="1" source="OEuJvRBujgitr7y0V4c9-1" target="OEuJvRBujgitr7y0V4c9-10">
          <mxGeometry width="50" height="50" relative="1" as="geometry">
            <mxPoint x="460" y="130" as="sourcePoint" />
            <mxPoint x="510" y="80" as="targetPoint" />
          </mxGeometry>
        </mxCell>
      </root>
    </mxGraphModel>
  </diagram>
</mxfile>
